ply
format ascii 1.0
element vertex 329
property float x
property float y
property float z
property uchar red
property uchar green
property uchar blue
element face 584
property list uchar int vertex_index
end_header
0.0000 -0.1500 0.0000 0 0 255
0.0000 -0.1500 0.0000 0 0 255
0.0000 -0.1500 0.0000 0 0 255
0.0000 -0.1500 0.0000 0 0 255
0.0000 -0.1500 0.0000 0 0 255
-0.0000 -0.1500 0.0000 0 0 255
-0.0000 -0.1500 0.0000 0 0 255
-0.0000 -0.1500 0.0000 0 0 255
-0.0000 -0.1500 0.0000 0 0 255
-0.0000 -0.1500 -0.0000 0 0 255
-0.0000 -0.1500 -0.0000 0 0 255
-0.0000 -0.1500 -0.0000 0 0 255
-0.0000 -0.1500 -0.0000 0 0 255
0.0000 -0.1500 -0.0000 0 0 255
0.0000 -0.1500 -0.0000 0 0 255
0.0000 -0.1500 -0.0000 0 0 255
0.0000 -0.1500 -0.0000 0 0 255
0.0293 -0.1471 0.0000 0 0 255
0.0270 -0.1471 0.0112 0 0 255
0.0207 -0.1471 0.0207 0 0 255
0.0112 -0.1471 0.0270 0 0 255
0.0000 -0.1471 0.0293 0 0 255
-0.0112 -0.1471 0.0270 0 0 255
-0.0207 -0.1471 0.0207 0 0 255
-0.0270 -0.1471 0.0112 0 0 255
-0.0293 -0.1471 0.0000 0 0 255
-0.0270 -0.1471 -0.0112 0 0 255
-0.0207 -0.1471 -0.0207 0 0 255
-0.0112 -0.1471 -0.0270 0 0 255
-0.0000 -0.1471 -0.0293 0 0 255
0.0112 -0.1471 -0.0270 0 0 255
0.0207 -0.1471 -0.0207 0 0 255
0.0270 -0.1471 -0.0112 0 0 255
0.0293 -0.1471 -0.0000 0 0 255
0.0574 -0.1386 0.0000 0 0 255
0.0530 -0.1386 0.0220 0 0 255
0.0406 -0.1386 0.0406 0 0 255
0.0220 -0.1386 0.0530 0 0 255
0.0000 -0.1386 0.0574 0 0 255
-0.0220 -0.1386 0.0530 0 0 255
-0.0406 -0.1386 0.0406 0 0 255
-0.0530 -0.1386 0.0220 0 0 255
-0.0574 -0.1386 0.0000 0 0 255
-0.0530 -0.1386 -0.0220 0 0 255
-0.0406 -0.1386 -0.0406 0 0 255
-0.0220 -0.1386 -0.0530 0 0 255
-0.0000 -0.1386 -0.0574 0 0 255
0.0220 -0.1386 -0.0530 0 0 255
0.0406 -0.1386 -0.0406 0 0 255
0.0530 -0.1386 -0.0220 0 0 255
0.0574 -0.1386 -0.0000 0 0 255
0.0833 -0.1247 0.0000 0 0 255
0.0770 -0.1247 0.0319 0 0 255
0.0589 -0.1247 0.0589 0 0 255
0.0319 -0.1247 0.0770 0 0 255
0.0000 -0.1247 0.0833 0 0 255
-0.0319 -0.1247 0.0770 0 0 255
-0.0589 -0.1247 0.0589 0 0 255
-0.0770 -0.1247 0.0319 0 0 255
-0.0833 -0.1247 0.0000 0 0 255
-0.0770 -0.1247 -0.0319 0 0 255
-0.0589 -0.1247 -0.0589 0 0 255
-0.0319 -0.1247 -0.0770 0 0 255
-0.0000 -0.1247 -0.0833 0 0 255
0.0319 -0.1247 -0.0770 0 0 255
0.0589 -0.1247 -0.0589 0 0 255
0.0770 -0.1247 -0.0319 0 0 255
0.0833 -0.1247 -0.0000 0 0 255
0.1061 -0.1061 0.0000 0 0 255
0.0980 -0.1061 0.0406 0 0 255
0.0750 -0.1061 0.0750 0 0 255
0.0406 -0.1061 0.0980 0 0 255
0.0000 -0.1061 0.1061 0 0 255
-0.0406 -0.1061 0.0980 0 0 255
-0.0750 -0.1061 0.0750 0 0 255
-0.0980 -0.1061 0.0406 0 0 255
-0.1061 -0.1061 0.0000 0 0 255
-0.0980 -0.1061 -0.0406 0 0 255
-0.0750 -0.1061 -0.0750 0 0 255
-0.0406 -0.1061 -0.0980 0 0 255
-0.0000 -0.1061 -0.1061 0 0 255
0.0406 -0.1061 -0.0980 0 0 255
0.0750 -0.1061 -0.0750 0 0 255
0.0980 -0.1061 -0.0406 0 0 255
0.1061 -0.1061 -0.0000 0 0 255
0.1247 -0.0833 0.0000 0 0 255
0.1152 -0.0833 0.0477 0 0 255
0.0882 -0.0833 0.0882 0 0 255
0.0477 -0.0833 0.1152 0 0 255
0.0000 -0.0833 0.1247 0 0 255
-0.0477 -0.0833 0.1152 0 0 255
-0.0882 -0.0833 0.0882 0 0 255
-0.1152 -0.0833 0.0477 0 0 255
-0.1247 -0.0833 0.0000 0 0 255
-0.1152 -0.0833 -0.0477 0 0 255
-0.0882 -0.0833 -0.0882 0 0 255
-0.0477 -0.0833 -0.1152 0 0 255
-0.0000 -0.0833 -0.1247 0 0 255
0.0477 -0.0833 -0.1152 0 0 255
0.0882 -0.0833 -0.0882 0 0 255
0.1152 -0.0833 -0.0477 0 0 255
0.1247 -0.0833 -0.0000 0 0 255
0.1386 -0.0574 0.0000 0 0 255
0.1280 -0.0574 0.0530 0 0 255
0.0980 -0.0574 0.0980 0 0 255
0.0530 -0.0574 0.1280 0 0 255
0.0000 -0.0574 0.1386 0 0 255
-0.0530 -0.0574 0.1280 0 0 255
-0.0980 -0.0574 0.0980 0 0 255
-0.1280 -0.0574 0.0530 0 0 255
-0.1386 -0.0574 0.0000 0 0 255
-0.1280 -0.0574 -0.0530 0 0 255
-0.0980 -0.0574 -0.0980 0 0 255
-0.0530 -0.0574 -0.1280 0 0 255
-0.0000 -0.0574 -0.1386 0 0 255
0.0530 -0.0574 -0.1280 0 0 255
0.0980 -0.0574 -0.0980 0 0 255
0.1280 -0.0574 -0.0530 0 0 255
0.1386 -0.0574 -0.0000 0 0 255
0.1471 -0.0293 0.0000 0 0 255
0.1359 -0.0293 0.0563 0 0 255
0.1040 -0.0293 0.1040 0 0 255
0.0563 -0.0293 0.1359 0 0 255
0.0000 -0.0293 0.1471 0 0 255
-0.0563 -0.0293 0.1359 0 0 255
-0.1040 -0.0293 0.1040 0 0 255
-0.1359 -0.0293 0.0563 0 0 255
-0.1471 -0.0293 0.0000 0 0 255
-0.1359 -0.0293 -0.0563 0 0 255
-0.1040 -0.0293 -0.1040 0 0 255
-0.0563 -0.0293 -0.1359 0 0 255
-0.0000 -0.0293 -0.1471 0 0 255
0.0563 -0.0293 -0.1359 0 0 255
0.1040 -0.0293 -0.1040 0 0 255
0.1359 -0.0293 -0.0563 0 0 255
0.1471 -0.0293 -0.0000 0 0 255
0.1500 0.0000 0.0000 0 0 255
0.1386 0.0000 0.0574 0 0 255
0.1061 0.0000 0.1061 0 0 255
0.0574 0.0000 0.1386 0 0 255
0.0000 0.0000 0.1500 0 0 255
-0.0574 0.0000 0.1386 0 0 255
-0.1061 0.0000 0.1061 0 0 255
-0.1386 0.0000 0.0574 0 0 255
-0.1500 0.0000 0.0000 0 0 255
-0.1386 0.0000 -0.0574 0 0 255
-0.1061 0.0000 -0.1061 0 0 255
-0.0574 0.0000 -0.1386 0 0 255
-0.0000 0.0000 -0.1500 0 0 255
0.0574 0.0000 -0.1386 0 0 255
0.1061 0.0000 -0.1061 0 0 255
0.1386 0.0000 -0.0574 0 0 255
0.1500 0.0000 -0.0000 0 0 255
0.1471 0.0293 0.0000 0 0 255
0.1359 0.0293 0.0563 0 0 255
0.1040 0.0293 0.1040 0 0 255
0.0563 0.0293 0.1359 0 0 255
0.0000 0.0293 0.1471 0 0 255
-0.0563 0.0293 0.1359 0 0 255
-0.1040 0.0293 0.1040 0 0 255
-0.1359 0.0293 0.0563 0 0 255
-0.1471 0.0293 0.0000 0 0 255
-0.1359 0.0293 -0.0563 0 0 255
-0.1040 0.0293 -0.1040 0 0 255
-0.0563 0.0293 -0.1359 0 0 255
-0.0000 0.0293 -0.1471 0 0 255
0.0563 0.0293 -0.1359 0 0 255
0.1040 0.0293 -0.1040 0 0 255
0.1359 0.0293 -0.0563 0 0 255
0.1471 0.0293 -0.0000 0 0 255
0.1386 0.0574 0.0000 0 0 255
0.1280 0.0574 0.0530 0 0 255
0.0980 0.0574 0.0980 0 0 255
0.0530 0.0574 0.1280 0 0 255
0.0000 0.0574 0.1386 0 0 255
-0.0530 0.0574 0.1280 0 0 255
-0.0980 0.0574 0.0980 0 0 255
-0.1280 0.0574 0.0530 0 0 255
-0.1386 0.0574 0.0000 0 0 255
-0.1280 0.0574 -0.0530 0 0 255
-0.0980 0.0574 -0.0980 0 0 255
-0.0530 0.0574 -0.1280 0 0 255
-0.0000 0.0574 -0.1386 0 0 255
0.0530 0.0574 -0.1280 0 0 255
0.0980 0.0574 -0.0980 0 0 255
0.1280 0.0574 -0.0530 0 0 255
0.1386 0.0574 -0.0000 0 0 255
0.1247 0.0833 0.0000 0 0 255
0.1152 0.0833 0.0477 0 0 255
0.0882 0.0833 0.0882 0 0 255
0.0477 0.0833 0.1152 0 0 255
0.0000 0.0833 0.1247 0 0 255
-0.0477 0.0833 0.1152 0 0 255
-0.0882 0.0833 0.0882 0 0 255
-0.1152 0.0833 0.0477 0 0 255
-0.1247 0.0833 0.0000 0 0 255
-0.1152 0.0833 -0.0477 0 0 255
-0.0882 0.0833 -0.0882 0 0 255
-0.0477 0.0833 -0.1152 0 0 255
-0.0000 0.0833 -0.1247 0 0 255
0.0477 0.0833 -0.1152 0 0 255
0.0882 0.0833 -0.0882 0 0 255
0.1152 0.0833 -0.0477 0 0 255
0.1247 0.0833 -0.0000 0 0 255
0.1061 0.1061 0.0000 0 0 255
0.0980 0.1061 0.0406 0 0 255
0.0750 0.1061 0.0750 0 0 255
0.0406 0.1061 0.0980 0 0 255
0.0000 0.1061 0.1061 0 0 255
-0.0406 0.1061 0.0980 0 0 255
-0.0750 0.1061 0.0750 0 0 255
-0.0980 0.1061 0.0406 0 0 255
-0.1061 0.1061 0.0000 0 0 255
-0.0980 0.1061 -0.0406 0 0 255
-0.0750 0.1061 -0.0750 0 0 255
-0.0406 0.1061 -0.0980 0 0 255
-0.0000 0.1061 -0.1061 0 0 255
0.0406 0.1061 -0.0980 0 0 255
0.0750 0.1061 -0.0750 0 0 255
0.0980 0.1061 -0.0406 0 0 255
0.1061 0.1061 -0.0000 0 0 255
0.0833 0.1247 0.0000 0 0 255
0.0770 0.1247 0.0319 0 0 255
0.0589 0.1247 0.0589 0 0 255
0.0319 0.1247 0.0770 0 0 255
0.0000 0.1247 0.0833 0 0 255
-0.0319 0.1247 0.0770 0 0 255
-0.0589 0.1247 0.0589 0 0 255
-0.0770 0.1247 0.0319 0 0 255
-0.0833 0.1247 0.0000 0 0 255
-0.0770 0.1247 -0.0319 0 0 255
-0.0589 0.1247 -0.0589 0 0 255
-0.0319 0.1247 -0.0770 0 0 255
-0.0000 0.1247 -0.0833 0 0 255
0.0319 0.1247 -0.0770 0 0 255
0.0589 0.1247 -0.0589 0 0 255
0.0770 0.1247 -0.0319 0 0 255
0.0833 0.1247 -0.0000 0 0 255
0.0574 0.1386 0.0000 0 0 255
0.0530 0.1386 0.0220 0 0 255
0.0406 0.1386 0.0406 0 0 255
0.0220 0.1386 0.0530 0 0 255
0.0000 0.1386 0.0574 0 0 255
-0.0220 0.1386 0.0530 0 0 255
-0.0406 0.1386 0.0406 0 0 255
-0.0530 0.1386 0.0220 0 0 255
-0.0574 0.1386 0.0000 0 0 255
-0.0530 0.1386 -0.0220 0 0 255
-0.0406 0.1386 -0.0406 0 0 255
-0.0220 0.1386 -0.0530 0 0 255
-0.0000 0.1386 -0.0574 0 0 255
0.0220 0.1386 -0.0530 0 0 255
0.0406 0.1386 -0.0406 0 0 255
0.0530 0.1386 -0.0220 0 0 255
0.0574 0.1386 -0.0000 0 0 255
0.0293 0.1471 0.0000 0 0 255
0.0270 0.1471 0.0112 0 0 255
0.0207 0.1471 0.0207 0 0 255
0.0112 0.1471 0.0270 0 0 255
0.0000 0.1471 0.0293 0 0 255
-0.0112 0.1471 0.0270 0 0 255
-0.0207 0.1471 0.0207 0 0 255
-0.0270 0.1471 0.0112 0 0 255
-0.0293 0.1471 0.0000 0 0 255
-0.0270 0.1471 -0.0112 0 0 255
-0.0207 0.1471 -0.0207 0 0 255
-0.0112 0.1471 -0.0270 0 0 255
-0.0000 0.1471 -0.0293 0 0 255
0.0112 0.1471 -0.0270 0 0 255
0.0207 0.1471 -0.0207 0 0 255
0.0270 0.1471 -0.0112 0 0 255
0.0293 0.1471 -0.0000 0 0 255
0.0000 0.1500 0.0000 0 0 255
0.0000 0.1500 0.0000 0 0 255
0.0000 0.1500 0.0000 0 0 255
0.0000 0.1500 0.0000 0 0 255
0.0000 0.1500 0.0000 0 0 255
-0.0000 0.1500 0.0000 0 0 255
-0.0000 0.1500 0.0000 0 0 255
-0.0000 0.1500 0.0000 0 0 255
-0.0000 0.1500 0.0000 0 0 255
-0.0000 0.1500 -0.0000 0 0 255
-0.0000 0.1500 -0.0000 0 0 255
-0.0000 0.1500 -0.0000 0 0 255
-0.0000 0.1500 -0.0000 0 0 255
0.0000 0.1500 -0.0000 0 0 255
0.0000 0.1500 -0.0000 0 0 255
0.0000 0.1500 -0.0000 0 0 255
0.0000 0.1500 -0.0000 0 0 255
0.0000 0.0000 0.0000 0 255 0
0.0000 0.0000 -0.8000 0 255 0
0.0800 0.0000 0.0000 0 255 0
0.0800 0.0000 -0.8000 0 255 0
0.0693 0.0400 0.0000 0 255 0
0.0693 0.0400 -0.8000 0 255 0
0.0400 0.0693 0.0000 0 255 0
0.0400 0.0693 -0.8000 0 255 0
0.0000 0.0800 0.0000 0 255 0
0.0000 0.0800 -0.8000 0 255 0
-0.0400 0.0693 0.0000 0 255 0
-0.0400 0.0693 -0.8000 0 255 0
-0.0693 0.0400 0.0000 0 255 0
-0.0693 0.0400 -0.8000 0 255 0
-0.0800 0.0000 0.0000 0 255 0
-0.0800 0.0000 -0.8000 0 255 0
-0.0693 -0.0400 0.0000 0 255 0
-0.0693 -0.0400 -0.8000 0 255 0
-0.0400 -0.0693 0.0000 0 255 0
-0.0400 -0.0693 -0.8000 0 255 0
-0.0000 -0.0800 0.0000 0 255 0
-0.0000 -0.0800 -0.8000 0 255 0
0.0400 -0.0693 0.0000 0 255 0
0.0400 -0.0693 -0.8000 0 255 0
0.0693 -0.0400 0.0000 0 255 0
0.0693 -0.0400 -0.8000 0 255 0
0.0000 0.0000 -0.8000 255 255 255
0.0000 0.0000 -1.2000 255 255 255
0.2200 0.0000 -0.8000 255 255 255
0.1905 0.1100 -0.8000 255 255 255
0.1100 0.1905 -0.8000 255 255 255
0.0000 0.2200 -0.8000 255 255 255
-0.1100 0.1905 -0.8000 255 255 255
-0.1905 0.1100 -0.8000 255 255 255
-0.2200 0.0000 -0.8000 255 255 255
-0.1905 -0.1100 -0.8000 255 255 255
-0.1100 -0.1905 -0.8000 255 255 255
-0.0000 -0.2200 -0.8000 255 255 255
0.1100 -0.1905 -0.8000 255 255 255
0.1905 -0.1100 -0.8000 255 255 255
3 0 1 17
3 1 18 17
3 1 2 18
3 2 19 18
3 2 3 19
3 3 20 19
3 3 4 20
3 4 21 20
3 4 5 21
3 5 22 21
3 5 6 22
3 6 23 22
3 6 7 23
3 7 24 23
3 7 8 24
3 8 25 24
3 8 9 25
3 9 26 25
3 9 10 26
3 10 27 26
3 10 11 27
3 11 28 27
3 11 12 28
3 12 29 28
3 12 13 29
3 13 30 29
3 13 14 30
3 14 31 30
3 14 15 31
3 15 32 31
3 15 16 32
3 16 33 32
3 17 18 34
3 18 35 34
3 18 19 35
3 19 36 35
3 19 20 36
3 20 37 36
3 20 21 37
3 21 38 37
3 21 22 38
3 22 39 38
3 22 23 39
3 23 40 39
3 23 24 40
3 24 41 40
3 24 25 41
3 25 42 41
3 25 26 42
3 26 43 42
3 26 27 43
3 27 44 43
3 27 28 44
3 28 45 44
3 28 29 45
3 29 46 45
3 29 30 46
3 30 47 46
3 30 31 47
3 31 48 47
3 31 32 48
3 32 49 48
3 32 33 49
3 33 50 49
3 34 35 51
3 35 52 51
3 35 36 52
3 36 53 52
3 36 37 53
3 37 54 53
3 37 38 54
3 38 55 54
3 38 39 55
3 39 56 55
3 39 40 56
3 40 57 56
3 40 41 57
3 41 58 57
3 41 42 58
3 42 59 58
3 42 43 59
3 43 60 59
3 43 44 60
3 44 61 60
3 44 45 61
3 45 62 61
3 45 46 62
3 46 63 62
3 46 47 63
3 47 64 63
3 47 48 64
3 48 65 64
3 48 49 65
3 49 66 65
3 49 50 66
3 50 67 66
3 51 52 68
3 52 69 68
3 52 53 69
3 53 70 69
3 53 54 70
3 54 71 70
3 54 55 71
3 55 72 71
3 55 56 72
3 56 73 72
3 56 57 73
3 57 74 73
3 57 58 74
3 58 75 74
3 58 59 75
3 59 76 75
3 59 60 76
3 60 77 76
3 60 61 77
3 61 78 77
3 61 62 78
3 62 79 78
3 62 63 79
3 63 80 79
3 63 64 80
3 64 81 80
3 64 65 81
3 65 82 81
3 65 66 82
3 66 83 82
3 66 67 83
3 67 84 83
3 68 69 85
3 69 86 85
3 69 70 86
3 70 87 86
3 70 71 87
3 71 88 87
3 71 72 88
3 72 89 88
3 72 73 89
3 73 90 89
3 73 74 90
3 74 91 90
3 74 75 91
3 75 92 91
3 75 76 92
3 76 93 92
3 76 77 93
3 77 94 93
3 77 78 94
3 78 95 94
3 78 79 95
3 79 96 95
3 79 80 96
3 80 97 96
3 80 81 97
3 81 98 97
3 81 82 98
3 82 99 98
3 82 83 99
3 83 100 99
3 83 84 100
3 84 101 100
3 85 86 102
3 86 103 102
3 86 87 103
3 87 104 103
3 87 88 104
3 88 105 104
3 88 89 105
3 89 106 105
3 89 90 106
3 90 107 106
3 90 91 107
3 91 108 107
3 91 92 108
3 92 109 108
3 92 93 109
3 93 110 109
3 93 94 110
3 94 111 110
3 94 95 111
3 95 112 111
3 95 96 112
3 96 113 112
3 96 97 113
3 97 114 113
3 97 98 114
3 98 115 114
3 98 99 115
3 99 116 115
3 99 100 116
3 100 117 116
3 100 101 117
3 101 118 117
3 102 103 119
3 103 120 119
3 103 104 120
3 104 121 120
3 104 105 121
3 105 122 121
3 105 106 122
3 106 123 122
3 106 107 123
3 107 124 123
3 107 108 124
3 108 125 124
3 108 109 125
3 109 126 125
3 109 110 126
3 110 127 126
3 110 111 127
3 111 128 127
3 111 112 128
3 112 129 128
3 112 113 129
3 113 130 129
3 113 114 130
3 114 131 130
3 114 115 131
3 115 132 131
3 115 116 132
3 116 133 132
3 116 117 133
3 117 134 133
3 117 118 134
3 118 135 134
3 119 120 136
3 120 137 136
3 120 121 137
3 121 138 137
3 121 122 138
3 122 139 138
3 122 123 139
3 123 140 139
3 123 124 140
3 124 141 140
3 124 125 141
3 125 142 141
3 125 126 142
3 126 143 142
3 126 127 143
3 127 144 143
3 127 128 144
3 128 145 144
3 128 129 145
3 129 146 145
3 129 130 146
3 130 147 146
3 130 131 147
3 131 148 147
3 131 132 148
3 132 149 148
3 132 133 149
3 133 150 149
3 133 134 150
3 134 151 150
3 134 135 151
3 135 152 151
3 136 137 153
3 137 154 153
3 137 138 154
3 138 155 154
3 138 139 155
3 139 156 155
3 139 140 156
3 140 157 156
3 140 141 157
3 141 158 157
3 141 142 158
3 142 159 158
3 142 143 159
3 143 160 159
3 143 144 160
3 144 161 160
3 144 145 161
3 145 162 161
3 145 146 162
3 146 163 162
3 146 147 163
3 147 164 163
3 147 148 164
3 148 165 164
3 148 149 165
3 149 166 165
3 149 150 166
3 150 167 166
3 150 151 167
3 151 168 167
3 151 152 168
3 152 169 168
3 153 154 170
3 154 171 170
3 154 155 171
3 155 172 171
3 155 156 172
3 156 173 172
3 156 157 173
3 157 174 173
3 157 158 174
3 158 175 174
3 158 159 175
3 159 176 175
3 159 160 176
3 160 177 176
3 160 161 177
3 161 178 177
3 161 162 178
3 162 179 178
3 162 163 179
3 163 180 179
3 163 164 180
3 164 181 180
3 164 165 181
3 165 182 181
3 165 166 182
3 166 183 182
3 166 167 183
3 167 184 183
3 167 168 184
3 168 185 184
3 168 169 185
3 169 186 185
3 170 171 187
3 171 188 187
3 171 172 188
3 172 189 188
3 172 173 189
3 173 190 189
3 173 174 190
3 174 191 190
3 174 175 191
3 175 192 191
3 175 176 192
3 176 193 192
3 176 177 193
3 177 194 193
3 177 178 194
3 178 195 194
3 178 179 195
3 179 196 195
3 179 180 196
3 180 197 196
3 180 181 197
3 181 198 197
3 181 182 198
3 182 199 198
3 182 183 199
3 183 200 199
3 183 184 200
3 184 201 200
3 184 185 201
3 185 202 201
3 185 186 202
3 186 203 202
3 187 188 204
3 188 205 204
3 188 189 205
3 189 206 205
3 189 190 206
3 190 207 206
3 190 191 207
3 191 208 207
3 191 192 208
3 192 209 208
3 192 193 209
3 193 210 209
3 193 194 210
3 194 211 210
3 194 195 211
3 195 212 211
3 195 196 212
3 196 213 212
3 196 197 213
3 197 214 213
3 197 198 214
3 198 215 214
3 198 199 215
3 199 216 215
3 199 200 216
3 200 217 216
3 200 201 217
3 201 218 217
3 201 202 218
3 202 219 218
3 202 203 219
3 203 220 219
3 204 205 221
3 205 222 221
3 205 206 222
3 206 223 222
3 206 207 223
3 207 224 223
3 207 208 224
3 208 225 224
3 208 209 225
3 209 226 225
3 209 210 226
3 210 227 226
3 210 211 227
3 211 228 227
3 211 212 228
3 212 229 228
3 212 213 229
3 213 230 229
3 213 214 230
3 214 231 230
3 214 215 231
3 215 232 231
3 215 216 232
3 216 233 232
3 216 217 233
3 217 234 233
3 217 218 234
3 218 235 234
3 218 219 235
3 219 236 235
3 219 220 236
3 220 237 236
3 221 222 238
3 222 239 238
3 222 223 239
3 223 240 239
3 223 224 240
3 224 241 240
3 224 225 241
3 225 242 241
3 225 226 242
3 226 243 242
3 226 227 243
3 227 244 243
3 227 228 244
3 228 245 244
3 228 229 245
3 229 246 245
3 229 230 246
3 230 247 246
3 230 231 247
3 231 248 247
3 231 232 248
3 232 249 248
3 232 233 249
3 233 250 249
3 233 234 250
3 234 251 250
3 234 235 251
3 235 252 251
3 235 236 252
3 236 253 252
3 236 237 253
3 237 254 253
3 238 239 255
3 239 256 255
3 239 240 256
3 240 257 256
3 240 241 257
3 241 258 257
3 241 242 258
3 242 259 258
3 242 243 259
3 243 260 259
3 243 244 260
3 244 261 260
3 244 245 261
3 245 262 261
3 245 246 262
3 246 263 262
3 246 247 263
3 247 264 263
3 247 248 264
3 248 265 264
3 248 249 265
3 249 266 265
3 249 250 266
3 250 267 266
3 250 251 267
3 251 268 267
3 251 252 268
3 252 269 268
3 252 253 269
3 253 270 269
3 253 254 270
3 254 271 270
3 255 256 272
3 256 273 272
3 256 257 273
3 257 274 273
3 257 258 274
3 258 275 274
3 258 259 275
3 259 276 275
3 259 260 276
3 260 277 276
3 260 261 277
3 261 278 277
3 261 262 278
3 262 279 278
3 262 263 279
3 263 280 279
3 263 264 280
3 264 281 280
3 264 265 281
3 265 282 281
3 265 266 282
3 266 283 282
3 266 267 283
3 267 284 283
3 267 268 284
3 268 285 284
3 268 269 285
3 269 286 285
3 269 270 286
3 270 287 286
3 270 271 287
3 271 288 287
3 291 294 292
3 291 293 294
3 289 293 291
3 290 292 294
3 293 296 294
3 293 295 296
3 289 295 293
3 290 294 296
3 295 298 296
3 295 297 298
3 289 297 295
3 290 296 298
3 297 300 298
3 297 299 300
3 289 299 297
3 290 298 300
3 299 302 300
3 299 301 302
3 289 301 299
3 290 300 302
3 301 304 302
3 301 303 304
3 289 303 301
3 290 302 304
3 303 306 304
3 303 305 306
3 289 305 303
3 290 304 306
3 305 308 306
3 305 307 308
3 289 307 305
3 290 306 308
3 307 310 308
3 307 309 310
3 289 309 307
3 290 308 310
3 309 312 310
3 309 311 312
3 289 311 309
3 290 310 312
3 311 314 312
3 311 313 314
3 289 313 311
3 290 312 314
3 313 292 314
3 313 291 292
3 289 291 313
3 290 314 292
3 317 318 316
3 315 318 317
3 318 319 316
3 315 319 318
3 319 320 316
3 315 320 319
3 320 321 316
3 315 321 320
3 321 322 316
3 315 322 321
3 322 323 316
3 315 323 322
3 323 324 316
3 315 324 323
3 324 325 316
3 315 325 324
3 325 326 316
3 315 326 325
3 326 327 316
3 315 327 326
3 327 328 316
3 315 328 327
3 328 317 316
3 315 317 328
