# Optimized OBJ Generator
v 0.000000 0.000000 0.000000
v 0.000000 0.500000 0.000000
v 0.043578 0.498097 0.000000
v 0.086824 0.492404 0.000000
v 0.129410 0.482963 0.000000
v 0.171010 0.469846 0.000000
v 0.211309 0.453154 0.000000
v 0.250000 0.433013 0.000000
v 0.286788 0.409576 0.000000
v 0.321394 0.383022 0.000000
v 0.353553 0.353553 0.000000
v 0.383022 0.321394 0.000000
v 0.409576 0.286788 0.000000
v 0.433013 0.250000 0.000000
v 0.453154 0.211309 0.000000
v 0.469846 0.171010 0.000000
v 0.482963 0.129410 0.000000
v 0.492404 0.086824 0.000000
v 0.498097 0.043578 0.000000
v 0.500000 0.000000 0.000000
v 0.498097 -0.043578 0.000000
v 0.492404 -0.086824 0.000000
v 0.482963 -0.129410 0.000000
v 0.469846 -0.171010 0.000000
v 0.453154 -0.211309 0.000000
v 0.433013 -0.250000 0.000000
v 0.409576 -0.286788 0.000000
v 0.383022 -0.321394 0.000000
v 0.353553 -0.353553 0.000000
v 0.321394 -0.383022 0.000000
v 0.286788 -0.409576 0.000000
v 0.250000 -0.433013 0.000000
v 0.211309 -0.453154 0.000000
v 0.171010 -0.469846 0.000000
v 0.129410 -0.482963 0.000000
v 0.086824 -0.492404 0.000000
v 0.043578 -0.498097 0.000000
v 0.000000 -0.500000 0.000000
v -0.043578 -0.498097 0.000000
v -0.086824 -0.492404 0.000000
v -0.129410 -0.482963 0.000000
v -0.171010 -0.469846 0.000000
v -0.211309 -0.453154 0.000000
v -0.250000 -0.433013 0.000000
v -0.286788 -0.409576 0.000000
v -0.321394 -0.383022 0.000000
v -0.353553 -0.353553 0.000000
v -0.383022 -0.321394 0.000000
v -0.409576 -0.286788 0.000000
v -0.433013 -0.250000 0.000000
v -0.453154 -0.211309 0.000000
v -0.469846 -0.171010 0.000000
v -0.482963 -0.129410 0.000000
v -0.492404 -0.086824 0.000000
v -0.498097 -0.043578 0.000000
v -0.500000 -0.000000 0.000000
v -0.498097 0.043578 0.000000
v -0.492404 0.086824 0.000000
v -0.482963 0.129410 0.000000
v -0.469846 0.171010 0.000000
v -0.453154 0.211309 0.000000
v -0.433013 0.250000 0.000000
v -0.409576 0.286788 0.000000
v -0.383022 0.321394 0.000000
v -0.353553 0.353553 0.000000
v -0.321394 0.383022 0.000000
v -0.286788 0.409576 0.000000
v -0.250000 0.433013 0.000000
v -0.211309 0.453154 0.000000
v -0.171010 0.469846 0.000000
v -0.129410 0.482963 0.000000
v -0.086824 0.492404 0.000000
v -0.043578 0.498097 0.000000
vt 0.500000 0.500000
vt 0.500000 1.000000
vt 0.543578 0.998097
vt 0.586824 0.992404
vt 0.629410 0.982963
vt 0.671010 0.969846
vt 0.711309 0.953154
vt 0.750000 0.933013
vt 0.786788 0.909576
vt 0.821394 0.883022
vt 0.853553 0.853553
vt 0.883022 0.821394
vt 0.909576 0.786788
vt 0.933013 0.750000
vt 0.953154 0.711309
vt 0.969846 0.671010
vt 0.982963 0.629410
vt 0.992404 0.586824
vt 0.998097 0.543578
vt 1.000000 0.500000
vt 0.998097 0.456422
vt 0.992404 0.413176
vt 0.982963 0.370590
vt 0.969846 0.328990
vt 0.953154 0.288691
vt 0.933013 0.250000
vt 0.909576 0.213212
vt 0.883022 0.178606
vt 0.853553 0.146447
vt 0.821394 0.116978
vt 0.786788 0.090424
vt 0.750000 0.066987
vt 0.711309 0.046846
vt 0.671010 0.030154
vt 0.629410 0.017037
vt 0.586824 0.007596
vt 0.543578 0.001903
vt 0.500000 0.000000
vt 0.456422 0.001903
vt 0.413176 0.007596
vt 0.370590 0.017037
vt 0.328990 0.030154
vt 0.288691 0.046846
vt 0.250000 0.066987
vt 0.213212 0.090424
vt 0.178606 0.116978
vt 0.146447 0.146447
vt 0.116978 0.178606
vt 0.090424 0.213212
vt 0.066987 0.250000
vt 0.046846 0.288691
vt 0.030154 0.328990
vt 0.017037 0.370590
vt 0.007596 0.413176
vt 0.001903 0.456422
vt 0.000000 0.500000
vt 0.001903 0.543578
vt 0.007596 0.586824
vt 0.017037 0.629410
vt 0.030154 0.671010
vt 0.046846 0.711309
vt 0.066987 0.750000
vt 0.090424 0.786788
vt 0.116978 0.821394
vt 0.146447 0.853553
vt 0.178606 0.883022
vt 0.213212 0.909576
vt 0.250000 0.933013
vt 0.288691 0.953154
vt 0.328990 0.969846
vt 0.370590 0.982963
vt 0.413176 0.992404
vt 0.456422 0.998097
vn 0.000000 0.000000 1.000000
f 1/1/1 3/3/1 2/2/1
f 1/1/1 4/4/1 3/3/1
f 1/1/1 5/5/1 4/4/1
f 1/1/1 6/6/1 5/5/1
f 1/1/1 7/7/1 6/6/1
f 1/1/1 8/8/1 7/7/1
f 1/1/1 9/9/1 8/8/1
f 1/1/1 10/10/1 9/9/1
f 1/1/1 11/11/1 10/10/1
f 1/1/1 12/12/1 11/11/1
f 1/1/1 13/13/1 12/12/1
f 1/1/1 14/14/1 13/13/1
f 1/1/1 15/15/1 14/14/1
f 1/1/1 16/16/1 15/15/1
f 1/1/1 17/17/1 16/16/1
f 1/1/1 18/18/1 17/17/1
f 1/1/1 19/19/1 18/18/1
f 1/1/1 20/20/1 19/19/1
f 1/1/1 21/21/1 20/20/1
f 1/1/1 22/22/1 21/21/1
f 1/1/1 23/23/1 22/22/1
f 1/1/1 24/24/1 23/23/1
f 1/1/1 25/25/1 24/24/1
f 1/1/1 26/26/1 25/25/1
f 1/1/1 27/27/1 26/26/1
f 1/1/1 28/28/1 27/27/1
f 1/1/1 29/29/1 28/28/1
f 1/1/1 30/30/1 29/29/1
f 1/1/1 31/31/1 30/30/1
f 1/1/1 32/32/1 31/31/1
f 1/1/1 33/33/1 32/32/1
f 1/1/1 34/34/1 33/33/1
f 1/1/1 35/35/1 34/34/1
f 1/1/1 36/36/1 35/35/1
f 1/1/1 37/37/1 36/36/1
f 1/1/1 38/38/1 37/37/1
f 1/1/1 39/39/1 38/38/1
f 1/1/1 40/40/1 39/39/1
f 1/1/1 41/41/1 40/40/1
f 1/1/1 42/42/1 41/41/1
f 1/1/1 43/43/1 42/42/1
f 1/1/1 44/44/1 43/43/1
f 1/1/1 45/45/1 44/44/1
f 1/1/1 46/46/1 45/45/1
f 1/1/1 47/47/1 46/46/1
f 1/1/1 48/48/1 47/47/1
f 1/1/1 49/49/1 48/48/1
f 1/1/1 50/50/1 49/49/1
f 1/1/1 51/51/1 50/50/1
f 1/1/1 52/52/1 51/51/1
f 1/1/1 53/53/1 52/52/1
f 1/1/1 54/54/1 53/53/1
f 1/1/1 55/55/1 54/54/1
f 1/1/1 56/56/1 55/55/1
f 1/1/1 57/57/1 56/56/1
f 1/1/1 58/58/1 57/57/1
f 1/1/1 59/59/1 58/58/1
f 1/1/1 60/60/1 59/59/1
f 1/1/1 61/61/1 60/60/1
f 1/1/1 62/62/1 61/61/1
f 1/1/1 63/63/1 62/62/1
f 1/1/1 64/64/1 63/63/1
f 1/1/1 65/65/1 64/64/1
f 1/1/1 66/66/1 65/65/1
f 1/1/1 67/67/1 66/66/1
f 1/1/1 68/68/1 67/67/1
f 1/1/1 69/69/1 68/68/1
f 1/1/1 70/70/1 69/69/1
f 1/1/1 71/71/1 70/70/1
f 1/1/1 72/72/1 71/71/1
f 1/1/1 73/73/1 72/72/1
f 1/1/1 2/2/1 73/73/1
