# Optimized OBJ Generator
v 0.000000 0.000000 0.000000
v 0.000000 0.500000 0.000000
v 0.117557 0.161803 0.000000
v 0.475528 0.154508 0.000000
v 0.190211 -0.061803 0.000000
v 0.293893 -0.404508 0.000000
v 0.000000 -0.200000 0.000000
v -0.293893 -0.404508 0.000000
v -0.190211 -0.061803 0.000000
v -0.475528 0.154508 0.000000
v -0.117557 0.161803 0.000000
vt 0.500000 0.500000
vt 0.500000 1.000000
vt 0.617557 0.661803
vt 0.975528 0.654508
vt 0.690211 0.438197
vt 0.793893 0.095492
vt 0.500000 0.300000
vt 0.206107 0.095492
vt 0.309789 0.438197
vt 0.024472 0.654508
vt 0.382443 0.661803
vn 0.000000 0.000000 1.000000
f 1/1/1 3/3/1 2/2/1
f 1/1/1 4/4/1 3/3/1
f 1/1/1 5/5/1 4/4/1
f 1/1/1 6/6/1 5/5/1
f 1/1/1 7/7/1 6/6/1
f 1/1/1 8/8/1 7/7/1
f 1/1/1 9/9/1 8/8/1
f 1/1/1 10/10/1 9/9/1
f 1/1/1 11/11/1 10/10/1
f 1/1/1 2/2/1 11/11/1
