# Optimized OBJ Generator
v 0.500000 0.500000 0.000000
v 0.500000 -0.500000 0.000000
v 0.498097 0.500000 0.043578
v 0.498097 -0.500000 0.043578
v 0.492404 0.500000 0.086824
v 0.492404 -0.500000 0.086824
v 0.482963 0.500000 0.129410
v 0.482963 -0.500000 0.129410
v 0.469846 0.500000 0.171010
v 0.469846 -0.500000 0.171010
v 0.453154 0.500000 0.211309
v 0.453154 -0.500000 0.211309
v 0.433013 0.500000 0.250000
v 0.433013 -0.500000 0.250000
v 0.409576 0.500000 0.286788
v 0.409576 -0.500000 0.286788
v 0.383022 0.500000 0.321394
v 0.383022 -0.500000 0.321394
v 0.353553 0.500000 0.353553
v 0.353553 -0.500000 0.353553
v 0.321394 0.500000 0.383022
v 0.321394 -0.500000 0.383022
v 0.286788 0.500000 0.409576
v 0.286788 -0.500000 0.409576
v 0.250000 0.500000 0.433013
v 0.250000 -0.500000 0.433013
v 0.211309 0.500000 0.453154
v 0.211309 -0.500000 0.453154
v 0.171010 0.500000 0.469846
v 0.171010 -0.500000 0.469846
v 0.129410 0.500000 0.482963
v 0.129410 -0.500000 0.482963
v 0.086824 0.500000 0.492404
v 0.086824 -0.500000 0.492404
v 0.043578 0.500000 0.498097
v 0.043578 -0.500000 0.498097
v 0.000000 0.500000 0.500000
v 0.000000 -0.500000 0.500000
v -0.043578 0.500000 0.498097
v -0.043578 -0.500000 0.498097
v -0.086824 0.500000 0.492404
v -0.086824 -0.500000 0.492404
v -0.129410 0.500000 0.482963
v -0.129410 -0.500000 0.482963
v -0.171010 0.500000 0.469846
v -0.171010 -0.500000 0.469846
v -0.211309 0.500000 0.453154
v -0.211309 -0.500000 0.453154
v -0.250000 0.500000 0.433013
v -0.250000 -0.500000 0.433013
v -0.286788 0.500000 0.409576
v -0.286788 -0.500000 0.409576
v -0.321394 0.500000 0.383022
v -0.321394 -0.500000 0.383022
v -0.353553 0.500000 0.353553
v -0.353553 -0.500000 0.353553
v -0.383022 0.500000 0.321394
v -0.383022 -0.500000 0.321394
v -0.409576 0.500000 0.286788
v -0.409576 -0.500000 0.286788
v -0.433013 0.500000 0.250000
v -0.433013 -0.500000 0.250000
v -0.453154 0.500000 0.211309
v -0.453154 -0.500000 0.211309
v -0.469846 0.500000 0.171010
v -0.469846 -0.500000 0.171010
v -0.482963 0.500000 0.129410
v -0.482963 -0.500000 0.129410
v -0.492404 0.500000 0.086824
v -0.492404 -0.500000 0.086824
v -0.498097 0.500000 0.043578
v -0.498097 -0.500000 0.043578
v -0.500000 0.500000 0.000000
v -0.500000 -0.500000 0.000000
v -0.498097 0.500000 -0.043578
v -0.498097 -0.500000 -0.043578
v -0.492404 0.500000 -0.086824
v -0.492404 -0.500000 -0.086824
v -0.482963 0.500000 -0.129410
v -0.482963 -0.500000 -0.129410
v -0.469846 0.500000 -0.171010
v -0.469846 -0.500000 -0.171010
v -0.453154 0.500000 -0.211309
v -0.453154 -0.500000 -0.211309
v -0.433013 0.500000 -0.250000
v -0.433013 -0.500000 -0.250000
v -0.409576 0.500000 -0.286788
v -0.409576 -0.500000 -0.286788
v -0.383022 0.500000 -0.321394
v -0.383022 -0.500000 -0.321394
v -0.353553 0.500000 -0.353553
v -0.353553 -0.500000 -0.353553
v -0.321394 0.500000 -0.383022
v -0.321394 -0.500000 -0.383022
v -0.286788 0.500000 -0.409576
v -0.286788 -0.500000 -0.409576
v -0.250000 0.500000 -0.433013
v -0.250000 -0.500000 -0.433013
v -0.211309 0.500000 -0.453154
v -0.211309 -0.500000 -0.453154
v -0.171010 0.500000 -0.469846
v -0.171010 -0.500000 -0.469846
v -0.129410 0.500000 -0.482963
v -0.129410 -0.500000 -0.482963
v -0.086824 0.500000 -0.492404
v -0.086824 -0.500000 -0.492404
v -0.043578 0.500000 -0.498097
v -0.043578 -0.500000 -0.498097
v -0.000000 0.500000 -0.500000
v -0.000000 -0.500000 -0.500000
v 0.043578 0.500000 -0.498097
v 0.043578 -0.500000 -0.498097
v 0.086824 0.500000 -0.492404
v 0.086824 -0.500000 -0.492404
v 0.129410 0.500000 -0.482963
v 0.129410 -0.500000 -0.482963
v 0.171010 0.500000 -0.469846
v 0.171010 -0.500000 -0.469846
v 0.211309 0.500000 -0.453154
v 0.211309 -0.500000 -0.453154
v 0.250000 0.500000 -0.433013
v 0.250000 -0.500000 -0.433013
v 0.286788 0.500000 -0.409576
v 0.286788 -0.500000 -0.409576
v 0.321394 0.500000 -0.383022
v 0.321394 -0.500000 -0.383022
v 0.353553 0.500000 -0.353553
v 0.353553 -0.500000 -0.353553
v 0.383022 0.500000 -0.321394
v 0.383022 -0.500000 -0.321394
v 0.409576 0.500000 -0.286788
v 0.409576 -0.500000 -0.286788
v 0.433013 0.500000 -0.250000
v 0.433013 -0.500000 -0.250000
v 0.453154 0.500000 -0.211309
v 0.453154 -0.500000 -0.211309
v 0.469846 0.500000 -0.171010
v 0.469846 -0.500000 -0.171010
v 0.482963 0.500000 -0.129410
v 0.482963 -0.500000 -0.129410
v 0.492404 0.500000 -0.086824
v 0.492404 -0.500000 -0.086824
v 0.498097 0.500000 -0.043578
v 0.498097 -0.500000 -0.043578
v 0.000000 0.500000 0.000000
v 0.000000 -0.500000 0.000000
vt 0.000000 0.000000
vt 0.000000 1.000000
vt 0.013889 0.000000
vt 0.013889 1.000000
vt 0.027778 0.000000
vt 0.027778 1.000000
vt 0.041667 0.000000
vt 0.041667 1.000000
vt 0.055556 0.000000
vt 0.055556 1.000000
vt 0.069444 0.000000
vt 0.069444 1.000000
vt 0.083333 0.000000
vt 0.083333 1.000000
vt 0.097222 0.000000
vt 0.097222 1.000000
vt 0.111111 0.000000
vt 0.111111 1.000000
vt 0.125000 0.000000
vt 0.125000 1.000000
vt 0.138889 0.000000
vt 0.138889 1.000000
vt 0.152778 0.000000
vt 0.152778 1.000000
vt 0.166667 0.000000
vt 0.166667 1.000000
vt 0.180556 0.000000
vt 0.180556 1.000000
vt 0.194444 0.000000
vt 0.194444 1.000000
vt 0.208333 0.000000
vt 0.208333 1.000000
vt 0.222222 0.000000
vt 0.222222 1.000000
vt 0.236111 0.000000
vt 0.236111 1.000000
vt 0.250000 0.000000
vt 0.250000 1.000000
vt 0.263889 0.000000
vt 0.263889 1.000000
vt 0.277778 0.000000
vt 0.277778 1.000000
vt 0.291667 0.000000
vt 0.291667 1.000000
vt 0.305556 0.000000
vt 0.305556 1.000000
vt 0.319444 0.000000
vt 0.319444 1.000000
vt 0.333333 0.000000
vt 0.333333 1.000000
vt 0.347222 0.000000
vt 0.347222 1.000000
vt 0.361111 0.000000
vt 0.361111 1.000000
vt 0.375000 0.000000
vt 0.375000 1.000000
vt 0.388889 0.000000
vt 0.388889 1.000000
vt 0.402778 0.000000
vt 0.402778 1.000000
vt 0.416667 0.000000
vt 0.416667 1.000000
vt 0.430556 0.000000
vt 0.430556 1.000000
vt 0.444444 0.000000
vt 0.444444 1.000000
vt 0.458333 0.000000
vt 0.458333 1.000000
vt 0.472222 0.000000
vt 0.472222 1.000000
vt 0.486111 0.000000
vt 0.486111 1.000000
vt 0.500000 0.000000
vt 0.500000 1.000000
vt 0.513889 0.000000
vt 0.513889 1.000000
vt 0.527778 0.000000
vt 0.527778 1.000000
vt 0.541667 0.000000
vt 0.541667 1.000000
vt 0.555556 0.000000
vt 0.555556 1.000000
vt 0.569444 0.000000
vt 0.569444 1.000000
vt 0.583333 0.000000
vt 0.583333 1.000000
vt 0.597222 0.000000
vt 0.597222 1.000000
vt 0.611111 0.000000
vt 0.611111 1.000000
vt 0.625000 0.000000
vt 0.625000 1.000000
vt 0.638889 0.000000
vt 0.638889 1.000000
vt 0.652778 0.000000
vt 0.652778 1.000000
vt 0.666667 0.000000
vt 0.666667 1.000000
vt 0.680556 0.000000
vt 0.680556 1.000000
vt 0.694444 0.000000
vt 0.694444 1.000000
vt 0.708333 0.000000
vt 0.708333 1.000000
vt 0.722222 0.000000
vt 0.722222 1.000000
vt 0.736111 0.000000
vt 0.736111 1.000000
vt 0.750000 0.000000
vt 0.750000 1.000000
vt 0.763889 0.000000
vt 0.763889 1.000000
vt 0.777778 0.000000
vt 0.777778 1.000000
vt 0.791667 0.000000
vt 0.791667 1.000000
vt 0.805556 0.000000
vt 0.805556 1.000000
vt 0.819444 0.000000
vt 0.819444 1.000000
vt 0.833333 0.000000
vt 0.833333 1.000000
vt 0.847222 0.000000
vt 0.847222 1.000000
vt 0.861111 0.000000
vt 0.861111 1.000000
vt 0.875000 0.000000
vt 0.875000 1.000000
vt 0.888889 0.000000
vt 0.888889 1.000000
vt 0.902778 0.000000
vt 0.902778 1.000000
vt 0.916667 0.000000
vt 0.916667 1.000000
vt 0.930556 0.000000
vt 0.930556 1.000000
vt 0.944444 0.000000
vt 0.944444 1.000000
vt 0.958333 0.000000
vt 0.958333 1.000000
vt 0.972222 0.000000
vt 0.972222 1.000000
vt 0.986111 0.000000
vt 0.986111 1.000000
vt 1.000000 0.000000
vt 1.000000 1.000000
vt 0.500000 0.500000
vt 1.000000 0.500000
vt 0.998097 0.543578
vt 0.992404 0.586824
vt 0.982963 0.629410
vt 0.969846 0.671010
vt 0.953154 0.711309
vt 0.933013 0.750000
vt 0.909576 0.786788
vt 0.883022 0.821394
vt 0.853553 0.853553
vt 0.821394 0.883022
vt 0.786788 0.909576
vt 0.750000 0.933013
vt 0.711309 0.953154
vt 0.671010 0.969846
vt 0.629410 0.982963
vt 0.586824 0.992404
vt 0.543578 0.998097
vt 0.456422 0.998097
vt 0.413176 0.992404
vt 0.370590 0.982963
vt 0.328990 0.969846
vt 0.288691 0.953154
vt 0.250000 0.933013
vt 0.213212 0.909576
vt 0.178606 0.883022
vt 0.146447 0.853553
vt 0.116978 0.821394
vt 0.090424 0.786788
vt 0.066987 0.750000
vt 0.046846 0.711309
vt 0.030154 0.671010
vt 0.017037 0.629410
vt 0.007596 0.586824
vt 0.001903 0.543578
vt 0.000000 0.500000
vt 0.001903 0.456422
vt 0.007596 0.413176
vt 0.017037 0.370590
vt 0.030154 0.328990
vt 0.046846 0.288691
vt 0.066987 0.250000
vt 0.090424 0.213212
vt 0.116978 0.178606
vt 0.146447 0.146447
vt 0.178606 0.116978
vt 0.213212 0.090424
vt 0.250000 0.066987
vt 0.288691 0.046846
vt 0.328990 0.030154
vt 0.370590 0.017037
vt 0.413176 0.007596
vt 0.456422 0.001903
vt 0.543578 0.001903
vt 0.586824 0.007596
vt 0.629410 0.017037
vt 0.671010 0.030154
vt 0.711309 0.046846
vt 0.750000 0.066987
vt 0.786788 0.090424
vt 0.821394 0.116978
vt 0.853553 0.146447
vt 0.883022 0.178606
vt 0.909576 0.213212
vt 0.933013 0.250000
vt 0.953154 0.288691
vt 0.969846 0.328990
vt 0.982963 0.370590
vt 0.992404 0.413176
vt 0.998097 0.456422
vn 1.000000 0.000000 0.000000
vn 0.996195 0.000000 0.087156
vn 0.984808 0.000000 0.173648
vn 0.965926 0.000000 0.258819
vn 0.939693 0.000000 0.342020
vn 0.906308 0.000000 0.422618
vn 0.866025 0.000000 0.500000
vn 0.819152 0.000000 0.573576
vn 0.766044 0.000000 0.642788
vn 0.707107 0.000000 0.707107
vn 0.642788 0.000000 0.766044
vn 0.573576 0.000000 0.819152
vn 0.500000 0.000000 0.866025
vn 0.422618 0.000000 0.906308
vn 0.342020 0.000000 0.939693
vn 0.258819 0.000000 0.965926
vn 0.173648 0.000000 0.984808
vn 0.087156 0.000000 0.996195
vn 0.000000 0.000000 1.000000
vn -0.087156 0.000000 0.996195
vn -0.173648 0.000000 0.984808
vn -0.258819 0.000000 0.965926
vn -0.342020 0.000000 0.939693
vn -0.422618 0.000000 0.906308
vn -0.500000 0.000000 0.866025
vn -0.573576 0.000000 0.819152
vn -0.642788 0.000000 0.766044
vn -0.707107 0.000000 0.707107
vn -0.766044 0.000000 0.642788
vn -0.819152 0.000000 0.573576
vn -0.866025 0.000000 0.500000
vn -0.906308 0.000000 0.422618
vn -0.939693 0.000000 0.342020
vn -0.965926 0.000000 0.258819
vn -0.984808 0.000000 0.173648
vn -0.996195 0.000000 0.087156
vn -1.000000 0.000000 0.000000
vn -0.996195 0.000000 -0.087156
vn -0.984808 0.000000 -0.173648
vn -0.965926 0.000000 -0.258819
vn -0.939693 0.000000 -0.342020
vn -0.906308 0.000000 -0.422618
vn -0.866025 0.000000 -0.500000
vn -0.819152 0.000000 -0.573576
vn -0.766044 0.000000 -0.642788
vn -0.707107 0.000000 -0.707107
vn -0.642788 0.000000 -0.766044
vn -0.573576 0.000000 -0.819152
vn -0.500000 0.000000 -0.866025
vn -0.422618 0.000000 -0.906308
vn -0.342020 0.000000 -0.939693
vn -0.258819 0.000000 -0.965926
vn -0.173648 0.000000 -0.984808
vn -0.087156 0.000000 -0.996195
vn -0.000000 0.000000 -1.000000
vn 0.087156 0.000000 -0.996195
vn 0.173648 0.000000 -0.984808
vn 0.258819 0.000000 -0.965926
vn 0.342020 0.000000 -0.939693
vn 0.422618 0.000000 -0.906308
vn 0.500000 0.000000 -0.866025
vn 0.573576 0.000000 -0.819152
vn 0.642788 0.000000 -0.766044
vn 0.707107 0.000000 -0.707107
vn 0.766044 0.000000 -0.642788
vn 0.819152 0.000000 -0.573576
vn 0.866025 0.000000 -0.500000
vn 0.906308 0.000000 -0.422618
vn 0.939693 0.000000 -0.342020
vn 0.965926 0.000000 -0.258819
vn 0.984808 0.000000 -0.173648
vn 0.996195 0.000000 -0.087156
vn 0.000000 1.000000 0.000000
vn 0.000000 -1.000000 0.000000
f 1/1/1 4/4/2 2/2/1
f 1/1/1 3/3/2 4/4/2
f 3/3/2 6/6/3 4/4/2
f 3/3/2 5/5/3 6/6/3
f 5/5/3 8/8/4 6/6/3
f 5/5/3 7/7/4 8/8/4
f 7/7/4 10/10/5 8/8/4
f 7/7/4 9/9/5 10/10/5
f 9/9/5 12/12/6 10/10/5
f 9/9/5 11/11/6 12/12/6
f 11/11/6 14/14/7 12/12/6
f 11/11/6 13/13/7 14/14/7
f 13/13/7 16/16/8 14/14/7
f 13/13/7 15/15/8 16/16/8
f 15/15/8 18/18/9 16/16/8
f 15/15/8 17/17/9 18/18/9
f 17/17/9 20/20/10 18/18/9
f 17/17/9 19/19/10 20/20/10
f 19/19/10 22/22/11 20/20/10
f 19/19/10 21/21/11 22/22/11
f 21/21/11 24/24/12 22/22/11
f 21/21/11 23/23/12 24/24/12
f 23/23/12 26/26/13 24/24/12
f 23/23/12 25/25/13 26/26/13
f 25/25/13 28/28/14 26/26/13
f 25/25/13 27/27/14 28/28/14
f 27/27/14 30/30/15 28/28/14
f 27/27/14 29/29/15 30/30/15
f 29/29/15 32/32/16 30/30/15
f 29/29/15 31/31/16 32/32/16
f 31/31/16 34/34/17 32/32/16
f 31/31/16 33/33/17 34/34/17
f 33/33/17 36/36/18 34/34/17
f 33/33/17 35/35/18 36/36/18
f 35/35/18 38/38/19 36/36/18
f 35/35/18 37/37/19 38/38/19
f 37/37/19 40/40/20 38/38/19
f 37/37/19 39/39/20 40/40/20
f 39/39/20 42/42/21 40/40/20
f 39/39/20 41/41/21 42/42/21
f 41/41/21 44/44/22 42/42/21
f 41/41/21 43/43/22 44/44/22
f 43/43/22 46/46/23 44/44/22
f 43/43/22 45/45/23 46/46/23
f 45/45/23 48/48/24 46/46/23
f 45/45/23 47/47/24 48/48/24
f 47/47/24 50/50/25 48/48/24
f 47/47/24 49/49/25 50/50/25
f 49/49/25 52/52/26 50/50/25
f 49/49/25 51/51/26 52/52/26
f 51/51/26 54/54/27 52/52/26
f 51/51/26 53/53/27 54/54/27
f 53/53/27 56/56/28 54/54/27
f 53/53/27 55/55/28 56/56/28
f 55/55/28 58/58/29 56/56/28
f 55/55/28 57/57/29 58/58/29
f 57/57/29 60/60/30 58/58/29
f 57/57/29 59/59/30 60/60/30
f 59/59/30 62/62/31 60/60/30
f 59/59/30 61/61/31 62/62/31
f 61/61/31 64/64/32 62/62/31
f 61/61/31 63/63/32 64/64/32
f 63/63/32 66/66/33 64/64/32
f 63/63/32 65/65/33 66/66/33
f 65/65/33 68/68/34 66/66/33
f 65/65/33 67/67/34 68/68/34
f 67/67/34 70/70/35 68/68/34
f 67/67/34 69/69/35 70/70/35
f 69/69/35 72/72/36 70/70/35
f 69/69/35 71/71/36 72/72/36
f 71/71/36 74/74/37 72/72/36
f 71/71/36 73/73/37 74/74/37
f 73/73/37 76/76/38 74/74/37
f 73/73/37 75/75/38 76/76/38
f 75/75/38 78/78/39 76/76/38
f 75/75/38 77/77/39 78/78/39
f 77/77/39 80/80/40 78/78/39
f 77/77/39 79/79/40 80/80/40
f 79/79/40 82/82/41 80/80/40
f 79/79/40 81/81/41 82/82/41
f 81/81/41 84/84/42 82/82/41
f 81/81/41 83/83/42 84/84/42
f 83/83/42 86/86/43 84/84/42
f 83/83/42 85/85/43 86/86/43
f 85/85/43 88/88/44 86/86/43
f 85/85/43 87/87/44 88/88/44
f 87/87/44 90/90/45 88/88/44
f 87/87/44 89/89/45 90/90/45
f 89/89/45 92/92/46 90/90/45
f 89/89/45 91/91/46 92/92/46
f 91/91/46 94/94/47 92/92/46
f 91/91/46 93/93/47 94/94/47
f 93/93/47 96/96/48 94/94/47
f 93/93/47 95/95/48 96/96/48
f 95/95/48 98/98/49 96/96/48
f 95/95/48 97/97/49 98/98/49
f 97/97/49 100/100/50 98/98/49
f 97/97/49 99/99/50 100/100/50
f 99/99/50 102/102/51 100/100/50
f 99/99/50 101/101/51 102/102/51
f 101/101/51 104/104/52 102/102/51
f 101/101/51 103/103/52 104/104/52
f 103/103/52 106/106/53 104/104/52
f 103/103/52 105/105/53 106/106/53
f 105/105/53 108/108/54 106/106/53
f 105/105/53 107/107/54 108/108/54
f 107/107/54 110/110/55 108/108/54
f 107/107/54 109/109/55 110/110/55
f 109/109/55 112/112/56 110/110/55
f 109/109/55 111/111/56 112/112/56
f 111/111/56 114/114/57 112/112/56
f 111/111/56 113/113/57 114/114/57
f 113/113/57 116/116/58 114/114/57
f 113/113/57 115/115/58 116/116/58
f 115/115/58 118/118/59 116/116/58
f 115/115/58 117/117/59 118/118/59
f 117/117/59 120/120/60 118/118/59
f 117/117/59 119/119/60 120/120/60
f 119/119/60 122/122/61 120/120/60
f 119/119/60 121/121/61 122/122/61
f 121/121/61 124/124/62 122/122/61
f 121/121/61 123/123/62 124/124/62
f 123/123/62 126/126/63 124/124/62
f 123/123/62 125/125/63 126/126/63
f 125/125/63 128/128/64 126/126/63
f 125/125/63 127/127/64 128/128/64
f 127/127/64 130/130/65 128/128/64
f 127/127/64 129/129/65 130/130/65
f 129/129/65 132/132/66 130/130/65
f 129/129/65 131/131/66 132/132/66
f 131/131/66 134/134/67 132/132/66
f 131/131/66 133/133/67 134/134/67
f 133/133/67 136/136/68 134/134/67
f 133/133/67 135/135/68 136/136/68
f 135/135/68 138/138/69 136/136/68
f 135/135/68 137/137/69 138/138/69
f 137/137/69 140/140/70 138/138/69
f 137/137/69 139/139/70 140/140/70
f 139/139/70 142/142/71 140/140/70
f 139/139/70 141/141/71 142/142/71
f 141/141/71 144/144/72 142/142/71
f 141/141/71 143/143/72 144/144/72
f 143/143/72 2/146/1 144/144/72
f 143/143/72 1/145/1 2/146/1
f 145/147/73 3/149/73 1/148/73
f 145/147/73 5/150/73 3/149/73
f 145/147/73 7/151/73 5/150/73
f 145/147/73 9/152/73 7/151/73
f 145/147/73 11/153/73 9/152/73
f 145/147/73 13/154/73 11/153/73
f 145/147/73 15/155/73 13/154/73
f 145/147/73 17/156/73 15/155/73
f 145/147/73 19/157/73 17/156/73
f 145/147/73 21/158/73 19/157/73
f 145/147/73 23/159/73 21/158/73
f 145/147/73 25/160/73 23/159/73
f 145/147/73 27/161/73 25/160/73
f 145/147/73 29/162/73 27/161/73
f 145/147/73 31/163/73 29/162/73
f 145/147/73 33/164/73 31/163/73
f 145/147/73 35/165/73 33/164/73
f 145/147/73 37/74/73 35/165/73
f 145/147/73 39/166/73 37/74/73
f 145/147/73 41/167/73 39/166/73
f 145/147/73 43/168/73 41/167/73
f 145/147/73 45/169/73 43/168/73
f 145/147/73 47/170/73 45/169/73
f 145/147/73 49/171/73 47/170/73
f 145/147/73 51/172/73 49/171/73
f 145/147/73 53/173/73 51/172/73
f 145/147/73 55/174/73 53/173/73
f 145/147/73 57/175/73 55/174/73
f 145/147/73 59/176/73 57/175/73
f 145/147/73 61/177/73 59/176/73
f 145/147/73 63/178/73 61/177/73
f 145/147/73 65/179/73 63/178/73
f 145/147/73 67/180/73 65/179/73
f 145/147/73 69/181/73 67/180/73
f 145/147/73 71/182/73 69/181/73
f 145/147/73 73/183/73 71/182/73
f 145/147/73 75/184/73 73/183/73
f 145/147/73 77/185/73 75/184/73
f 145/147/73 79/186/73 77/185/73
f 145/147/73 81/187/73 79/186/73
f 145/147/73 83/188/73 81/187/73
f 145/147/73 85/189/73 83/188/73
f 145/147/73 87/190/73 85/189/73
f 145/147/73 89/191/73 87/190/73
f 145/147/73 91/192/73 89/191/73
f 145/147/73 93/193/73 91/192/73
f 145/147/73 95/194/73 93/193/73
f 145/147/73 97/195/73 95/194/73
f 145/147/73 99/196/73 97/195/73
f 145/147/73 101/197/73 99/196/73
f 145/147/73 103/198/73 101/197/73
f 145/147/73 105/199/73 103/198/73
f 145/147/73 107/200/73 105/199/73
f 145/147/73 109/73/73 107/200/73
f 145/147/73 111/201/73 109/73/73
f 145/147/73 113/202/73 111/201/73
f 145/147/73 115/203/73 113/202/73
f 145/147/73 117/204/73 115/203/73
f 145/147/73 119/205/73 117/204/73
f 145/147/73 121/206/73 119/205/73
f 145/147/73 123/207/73 121/206/73
f 145/147/73 125/208/73 123/207/73
f 145/147/73 127/209/73 125/208/73
f 145/147/73 129/210/73 127/209/73
f 145/147/73 131/211/73 129/210/73
f 145/147/73 133/212/73 131/211/73
f 145/147/73 135/213/73 133/212/73
f 145/147/73 137/214/73 135/213/73
f 145/147/73 139/215/73 137/214/73
f 145/147/73 141/216/73 139/215/73
f 145/147/73 143/217/73 141/216/73
f 145/147/73 1/148/73 143/217/73
f 146/147/74 2/148/74 4/217/74
f 146/147/74 4/217/74 6/216/74
f 146/147/74 6/216/74 8/215/74
f 146/147/74 8/215/74 10/214/74
f 146/147/74 10/214/74 12/213/74
f 146/147/74 12/213/74 14/212/74
f 146/147/74 14/212/74 16/211/74
f 146/147/74 16/211/74 18/210/74
f 146/147/74 18/210/74 20/209/74
f 146/147/74 20/209/74 22/208/74
f 146/147/74 22/208/74 24/207/74
f 146/147/74 24/207/74 26/206/74
f 146/147/74 26/206/74 28/205/74
f 146/147/74 28/205/74 30/204/74
f 146/147/74 30/204/74 32/203/74
f 146/147/74 32/203/74 34/202/74
f 146/147/74 34/202/74 36/201/74
f 146/147/74 36/201/74 38/73/74
f 146/147/74 38/73/74 40/200/74
f 146/147/74 40/200/74 42/199/74
f 146/147/74 42/199/74 44/198/74
f 146/147/74 44/198/74 46/197/74
f 146/147/74 46/197/74 48/196/74
f 146/147/74 48/196/74 50/195/74
f 146/147/74 50/195/74 52/194/74
f 146/147/74 52/194/74 54/193/74
f 146/147/74 54/193/74 56/192/74
f 146/147/74 56/192/74 58/191/74
f 146/147/74 58/191/74 60/190/74
f 146/147/74 60/190/74 62/189/74
f 146/147/74 62/189/74 64/188/74
f 146/147/74 64/188/74 66/187/74
f 146/147/74 66/187/74 68/186/74
f 146/147/74 68/186/74 70/185/74
f 146/147/74 70/185/74 72/184/74
f 146/147/74 72/184/74 74/183/74
f 146/147/74 74/183/74 76/182/74
f 146/147/74 76/182/74 78/181/74
f 146/147/74 78/181/74 80/180/74
f 146/147/74 80/180/74 82/179/74
f 146/147/74 82/179/74 84/178/74
f 146/147/74 84/178/74 86/177/74
f 146/147/74 86/177/74 88/176/74
f 146/147/74 88/176/74 90/175/74
f 146/147/74 90/175/74 92/174/74
f 146/147/74 92/174/74 94/173/74
f 146/147/74 94/173/74 96/172/74
f 146/147/74 96/172/74 98/171/74
f 146/147/74 98/171/74 100/170/74
f 146/147/74 100/170/74 102/169/74
f 146/147/74 102/169/74 104/168/74
f 146/147/74 104/168/74 106/167/74
f 146/147/74 106/167/74 108/166/74
f 146/147/74 108/166/74 110/74/74
f 146/147/74 110/74/74 112/165/74
f 146/147/74 112/165/74 114/164/74
f 146/147/74 114/164/74 116/163/74
f 146/147/74 116/163/74 118/162/74
f 146/147/74 118/162/74 120/161/74
f 146/147/74 120/161/74 122/160/74
f 146/147/74 122/160/74 124/159/74
f 146/147/74 124/159/74 126/158/74
f 146/147/74 126/158/74 128/157/74
f 146/147/74 128/157/74 130/156/74
f 146/147/74 130/156/74 132/155/74
f 146/147/74 132/155/74 134/154/74
f 146/147/74 134/154/74 136/153/74
f 146/147/74 136/153/74 138/152/74
f 146/147/74 138/152/74 140/151/74
f 146/147/74 140/151/74 142/150/74
f 146/147/74 142/150/74 144/149/74
f 146/147/74 144/149/74 2/148/74
