# Optimized OBJ Generator
v 0.500000 0.500000 0.000000
v 0.500000 -0.500000 0.000000
v 0.250000 0.500000 0.433013
v 0.250000 -0.500000 0.433013
v -0.250000 0.500000 0.433013
v -0.250000 -0.500000 0.433013
v -0.500000 0.500000 0.000000
v -0.500000 -0.500000 0.000000
v -0.250000 0.500000 -0.433013
v -0.250000 -0.500000 -0.433013
v 0.250000 0.500000 -0.433013
v 0.250000 -0.500000 -0.433013
v 0.000000 0.500000 0.000000
v 0.000000 -0.500000 0.000000
vt 0.000000 0.000000
vt 0.000000 1.000000
vt 0.166667 0.000000
vt 0.166667 1.000000
vt 0.333333 0.000000
vt 0.333333 1.000000
vt 0.500000 0.000000
vt 0.500000 1.000000
vt 0.666667 0.000000
vt 0.666667 1.000000
vt 0.833333 0.000000
vt 0.833333 1.000000
vt 1.000000 0.000000
vt 1.000000 1.000000
vt 0.500000 0.500000
vt 1.000000 0.500000
vt 0.750000 0.933013
vt 0.250000 0.933013
vt 0.000000 0.500000
vt 0.250000 0.066987
vt 0.750000 0.066987
vn 1.000000 0.000000 0.000000
vn 0.500000 0.000000 0.866025
vn -0.500000 0.000000 0.866025
vn -1.000000 0.000000 0.000000
vn -0.500000 0.000000 -0.866025
vn 0.500000 0.000000 -0.866025
vn 0.000000 1.000000 0.000000
vn 0.000000 -1.000000 0.000000
f 1/1/1 4/4/2 2/2/1
f 1/1/1 3/3/2 4/4/2
f 3/3/2 6/6/3 4/4/2
f 3/3/2 5/5/3 6/6/3
f 5/5/3 8/8/4 6/6/3
f 5/5/3 7/7/4 8/8/4
f 7/7/4 10/10/5 8/8/4
f 7/7/4 9/9/5 10/10/5
f 9/9/5 12/12/6 10/10/5
f 9/9/5 11/11/6 12/12/6
f 11/11/6 2/14/1 12/12/6
f 11/11/6 1/13/1 2/14/1
f 13/15/7 3/17/7 1/16/7
f 13/15/7 5/18/7 3/17/7
f 13/15/7 7/19/7 5/18/7
f 13/15/7 9/20/7 7/19/7
f 13/15/7 11/21/7 9/20/7
f 13/15/7 1/16/7 11/21/7
f 14/15/8 2/16/8 4/21/8
f 14/15/8 4/21/8 6/20/8
f 14/15/8 6/20/8 8/19/8
f 14/15/8 8/19/8 10/18/8
f 14/15/8 10/18/8 12/17/8
f 14/15/8 12/17/8 2/16/8
